PathFileType	4	(X/Y/Z)	/Users/itak/Documents/Research/Walk-IL/dataset/trc/00183_00008.trc
DataRate	CameraRate	NumFrames	NumMarkers	Units	OrigDataRate	OrigDataStartFrame	OrigNumFrames
100.000000	100.000000	4	53	mm	100.000000	426	852
Frame#	Time	RPSI			LPSI			L3			STRN			T10			C7			CLAV			RBAK			LBAK			LSHO			LUPA			LAEL			LAOL			LWTS			LWPS			LFRA			LIFD			LHPS			LHTS			RSHO			RUPA			RAEL			RAOL			RWTS			RWPS			RFRA			RIFD			RHTS			RHPS			RBHD			LFHD			RFHD			LBHD			LHIP			RHIP			RASI			LASI			LKNE			LTHI			LANK			LTIP			LTOE			LMT1			LMT5			LHEE			RKNE			RTHI			RANK			RTIP			RTOE			RMT1			RMT5			RHEE			
		X1	Y1	Z1	X2	Y2	Z2	X3	Y3	Z3	X4	Y4	Z4	X5	Y5	Z5	X6	Y6	Z6	X7	Y7	Z7	X8	Y8	Z8	X9	Y9	Z9	X10	Y10	Z10	X11	Y11	Z11	X12	Y12	Z12	X13	Y13	Z13	X14	Y14	Z14	X15	Y15	Z15	X16	Y16	Z16	X17	Y17	Z17	X18	Y18	Z18	X19	Y19	Z19	X20	Y20	Z20	X21	Y21	Z21	X22	Y22	Z22	X23	Y23	Z23	X24	Y24	Z24	X25	Y25	Z25	X26	Y26	Z26	X27	Y27	Z27	X28	Y28	Z28	X29	Y29	Z29	X30	Y30	Z30	X31	Y31	Z31	X32	Y32	Z32	X33	Y33	Z33	X34	Y34	Z34	X35	Y35	Z35	X36	Y36	Z36	X37	Y37	Z37	X38	Y38	Z38	X39	Y39	Z39	X40	Y40	Z40	X41	Y41	Z41	X42	Y42	Z42	X43	Y43	Z43	X44	Y44	Z44	X45	Y45	Z45	X46	Y46	Z46	X47	Y47	Z47	X48	Y48	Z48	X49	Y49	Z49	X50	Y50	Z50	X51	Y51	Z51	X52	Y52	Z52	X53	Y53	Z53	

427	4.26	156.4200592041016	1031.111328125	-627.4667358398438	141.6673278808594	1021.669311523438	-506.4932250976562	150.3358459472656	1058.440551757812	-571.3198852539062	-107.2969055175781	1269.063598632812	-568.031005859375	187.033447265625	1210.239501953125	-554.5715942382812	127.4739532470703	1477.538940429688	-513.4288940429688	-76.03914642333984	1379.126342773438	-540.4950561523438	197.3126525878906	1315.867431640625	-638.4042358398438	128.7092590332031	1438.661743164062	-418.5022583007812	48.09186553955078	1414.974853515625	-343.861572265625	92.03863525390625	1274.6630859375	-293.2971496582031	104.1795501708984	1062.3134765625	-311.3814086914062	137.3502197265625	1061.746704101562	-395.6494445800781	43.13492584228516	813.68505859375	-346.9228820800781	132.8594818115234	812.9290161132812	-327.6546936035156	115.4136047363281	953.0867919921875	-309.4036254882812	72.7720947265625	632.2247924804688	-391.0276489257812	129.9582824707031	741.22216796875	-336.0050354003906	57.89105224609375	732.4593505859375	-336.2759094238281	75.87435150146484	1481.156616210938	-696.9303588867188	101.252326965332	1423.280151367188	-770.7315673828125	120.1097030639648	1148.84716796875	-864.6580810546875	108.5727157592773	1122.877685546875	-768.6915283203125	-27.53229522705078	927.999267578125	-904.8604736328125	54.42996597290039	914.9635009765625	-940.8726806640625	95.42747497558594	1080.7138671875	-897.7178955078125	-46.43647003173828	738.2083740234375	-910.5140380859375	-53.89581680297852	836.4307861328125	-930.8928833007812	23.7417106628418	833.5599365234375	-954.3673095703125	75.81847381591797	1651.160034179688	-569.4660034179688	-70.88115692138672	1682.639038085938	-411.5564270019531	-87.22368621826172	1709.343627929688	-539.0258178710938	99.18212890625	1631.885986328125	-436.5682983398438	19.94563865661621	957.365478515625	-402.6553955078125	24.22568321228027	989.7500610351562	-775.5936889648438	-63.49835205078125	1014.715270996094	-734.1825561523438	-93.91761779785156	994.1389770507812	-480.0786437988281	-177.1442108154297	489.3585815429688	-465.4154663085938	-115.5216827392578	618.1613159179688	-427.6448059082031	-220.068115234375	33.31949234008789	-535.8942260742188	-203.3807525634766	258.1899719238281	-487.3427429199219	-421.5871276855469	66.95679473876953	-461.982421875	-402.8971862792969	55.49817276000977	-525.273681640625	-300.1543273925781	40.72548675537109	-456.9351196289062	-205.9209899902344	31.2520637512207	-620.990478515625	143.3245697021484	507.5969543457031	-791.9183959960938	26.58039855957031	759.5927734375	-803.0789184570312	499.8942565917969	139.4528350830078	-743.422607421875	199.1195983886719	391.4757080078125	-784.869873046875	333.8268127441406	39.17915725708008	-781.896728515625	349.1327514648438	45.72536468505859	-724.05615234375	440.9174499511719	57.30728912353516	-806.99365234375	502.0311889648438	175.7790374755859	-666.3713989257812	
428	4.27	143.4530029296875	1032.503295898438	-625.9915771484375	129.8253936767578	1023.801513671875	-504.6327819824219	137.9230041503906	1060.392700195312	-569.4965209960938	-119.0263900756836	1271.5927734375	-564.136962890625	175.3243255615234	1211.692138671875	-552.3712768554688	116.9137496948242	1479.053344726562	-510.9188842773438	-87.10335540771484	1381.5458984375	-536.9169921875	185.2928466796875	1317.162719726562	-636.1930541992188	118.3472442626953	1440.28515625	-415.9553527832031	38.06718063354492	1417.214477539062	-340.9505615234375	81.72873687744141	1276.889404296875	-290.2493591308594	93.37254333496094	1064.68310546875	-308.2567749023438	125.8801956176758	1063.694946289062	-392.5012817382812	33.8841667175293	815.5362548828125	-342.9082336425781	123.5750579833984	815.6970825195312	-323.6385803222656	105.1013488769531	955.7470703125	-305.9203491210938	65.77450561523438	634.277587890625	-387.1711730957031	121.4493637084961	743.9597778320312	-331.8701782226562	49.5377082824707	734.3318481445312	-332.3255004882812	64.45768737792969	1482.995727539062	-694.085205078125	89.57635498046875	1425.08837890625	-767.8703002929688	109.1289978027344	1150.059326171875	-859.7062377929688	96.91009521484375	1124.741943359375	-763.5618896484375	-37.22407150268555	928.0458374023438	-899.0039672851562	44.75985717773438	915.3405151367188	-934.8538208007812	84.83674621582031	1081.62939453125	-892.4678344726562	-54.90216827392578	738.016357421875	-903.3471069335938	-63.0546760559082	836.0755615234375	-924.4183959960938	14.67642498016357	833.6434326171875	-947.7684936523438	65.55237579345703	1652.958740234375	-566.1828002929688	-79.96974182128906	1684.651245117188	-407.3450012207031	-96.86476135253906	1711.796997070312	-534.5847778320312	89.71392059326172	1633.093994140625	-433.477783203125	9.084065437316895	959.7825927734375	-399.5546264648438	9.466594696044922	990.9367065429688	-772.616455078125	-77.32820129394531	1016.616333007812	-729.94189453125	-105.293327331543	996.5138549804688	-475.75927734375	-187.1687316894531	490.3177490234375	-462.7559509277344	-125.908576965332	619.7247314453125	-424.3688354492188	-221.1940155029297	34.16755676269531	-535.3622436523438	-210.1166076660156	258.5639038085938	-485.7201232910156	-425.0783081054688	62.31151962280273	-463.8898010253906	-405.2012939453125	51.64917373657227	-527.0623168945312	-303.1176147460938	39.59793853759766	-457.5057373046875	-206.5258178710938	32.40460968017578	-620.4287719726562	123.496696472168	507.2532653808594	-793.6273193359375	9.553718566894531	760.7530517578125	-800.693359375	489.5827941894531	149.4101104736328	-746.2066650390625	181.6438140869141	392.1039733886719	-787.4935302734375	332.2236022949219	38.05696868896484	-782.9606323242188	345.3710021972656	46.65961837768555	-725.5245971679688	436.1970520019531	62.66260528564453	-808.1699829101562	489.3997802734375	186.2738647460938	-669.6629638671875	
429	4.28	130.8786926269531	1033.78173828125	-624.4967651367188	118.409797668457	1025.7080078125	-502.8354187011719	125.8942642211914	1062.185424804688	-567.6824340820312	-130.5225219726562	1274.024536132812	-560.1161499023438	163.9033203125	1213.3447265625	-550.3310546875	106.3618774414062	1480.674926757812	-508.4816589355469	-98.07255554199219	1383.920532226562	-533.2598266601562	173.3408203125	1318.679565429688	-634.1031494140625	108.0176391601562	1442.036376953125	-413.4443969726562	28.17219924926758	1419.662475585938	-338.06689453125	71.52944946289062	1279.37890625	-287.1053161621094	82.5767822265625	1067.261596679688	-304.9348754882812	114.4554061889648	1065.786499023438	-389.107666015625	24.10495948791504	817.7158203125	-338.6563720703125	113.7533721923828	818.5662231445312	-319.3616333007812	94.59537506103516	958.5570678710938	-302.1979675292969	57.81540679931641	636.5911254882812	-383.1152954101562	112.217643737793	746.7987060546875	-327.4945068359375	40.4505729675293	736.4888916015625	-328.1516418457031	52.90655517578125	1484.910400390625	-691.2530517578125	77.729736328125	1427.033569335938	-765.0703125	98.11508178710938	1151.4140625	-854.8440551757812	85.28730010986328	1126.761596679688	-758.5155029296875	-47.01763153076172	928.2521362304688	-893.0833740234375	34.96988677978516	915.833740234375	-928.8152465820312	74.19936370849609	1082.67724609375	-887.2716064453125	-63.51401901245117	738.000244140625	-895.9799194335938	-72.33849334716797	835.896728515625	-917.824462890625	5.455739974975586	833.8428955078125	-941.0828857421875	55.21874618530273	1654.734252929688	-562.9541625976562	-88.96568298339844	1686.64453125	-403.0954895019531	-106.4968643188477	1714.255249023438	-530.0630493164062	80.25272369384766	1634.22216796875	-430.4395141601562	-1.237361669540405	961.9518432617188	-396.3847961425781	-4.923883438110352	992.06005859375	-769.5001831054688	-90.76611328125	1018.504211425781	-725.53857421875	-116.2026748657227	998.8468017578125	-471.2096862792969	-196.9174652099609	491.2486267089844	-460.2947082519531	-136.2352294921875	621.3370361328125	-421.3937072753906	-222.3318328857422	34.94022750854492	-534.876220703125	-216.6191864013672	258.9384460449219	-484.165283203125	-428.1433410644531	58.34932327270508	-465.8947143554688	-407.0899963378906	48.39852142333984	-528.98046875	-305.8340148925781	38.88379287719727	-458.0486145019531	-206.9480285644531	33.36223220825195	-619.7869873046875	102.6441040039062	506.5823974609375	-795.0590209960938	-7.735530376434326	761.8219604492188	-798.1146240234375	478.0138549804688	159.8958282470703	-748.9140625	163.0434875488281	392.4865112304688	-789.7295532226562	329.723876953125	36.65336227416992	-784.3832397460938	340.6973876953125	48.21258163452148	-727.21630859375	430.4724731445312	68.98391723632812	-809.303466796875	475.7606811523438	196.9095001220703	-672.8128662109375	
430	4.29	118.7047958374023	1034.895385742188	-622.9317016601562	107.38427734375	1027.3310546875	-501.0451965332031	114.2392578125	1063.773803710938	-565.8319702148438	-141.7623138427734	1276.294799804688	-556.0046997070312	152.7667236328125	1215.127685546875	-548.4104614257812	95.83309173583984	1482.3681640625	-506.1171569824219	-108.9241638183594	1386.186401367188	-529.5533447265625	161.5182189941406	1320.35302734375	-632.10888671875	97.71918487548828	1443.853271484375	-410.9559326171875	18.40019035339355	1422.232055664062	-335.2161254882812	61.44490051269531	1282.04345703125	-283.8845825195312	71.82882690429688	1069.95068359375	-301.4020690917969	103.168830871582	1067.961303710938	-385.4766845703125	13.79939746856689	820.126708984375	-334.1773071289062	103.4047470092773	821.4176635742188	-314.8464965820312	83.92465209960938	961.402099609375	-298.2362976074219	48.82901763916016	639.052734375	-378.85595703125	102.255500793457	749.6190185546875	-322.9023132324219	30.60585594177246	738.8319091796875	-323.7549438476562	41.2613639831543	1486.82666015625	-688.459716796875	65.74655151367188	1429.011840820312	-762.34326171875	87.04838562011719	1152.819702148438	-850.1595458984375	73.76754760742188	1128.844604492188	-753.6408081054688	-56.96357345581055	928.552490234375	-887.1273803710938	25.00002670288086	916.3687133789062	-922.8045043945312	63.4756965637207	1083.770629882812	-882.1986083984375	-72.30964660644531	738.0880126953125	-888.419189453125	-81.76747131347656	835.8087768554688	-911.1171875	-3.978046894073486	834.0804443359375	-934.3450927734375	44.84433746337891	1656.461791992188	-559.8087158203125	-97.84299468994141	1688.567504882812	-398.8244934082031	-116.122932434082	1716.675048828125	-525.4842529296875	70.82099914550781	1635.254150390625	-427.4839782714844	-11.10540008544922	963.8345336914062	-393.1439514160156	-18.87761688232422	993.1015625	-766.2568359375	-103.8007202148438	1020.330383300781	-721.0344848632812	-126.7058944702148	1001.062927246094	-466.4813232421875	-206.2337036132812	492.0564880371094	-458.0699462890625	-146.3166046142578	622.8403930664062	-418.7194213867188	-223.4520111083984	35.6118278503418	-534.5028686523438	-222.7760620117188	259.25439453125	-482.7235717773438	-430.6925659179688	54.94705581665039	-467.7117309570312	-408.5853881835938	45.65167236328125	-530.7847290039062	-308.1588134765625	38.47654724121094	-458.4989318847656	-207.2537689208984	34.13802337646484	-619.1532592773438	80.87685394287109	505.6561584472656	-796.12744140625	-25.20010948181152	762.8073120117188	-795.3411254882812	465.19482421875	170.737548828125	-751.4456176757812	143.4105529785156	392.6761169433594	-791.4541625976562	326.0770874023438	35.08709716796875	-786.1519775390625	334.8361511230469	50.48759841918945	-729.1051025390625	423.5141906738281	76.20359039306641	-810.3734741210938	461.1869812011719	207.5709991455078	-675.7128295898438	
